# xmcd
#
# Track frame offsets: 
#        150
#        14072
#        29202
#        49256
#        65879
#        85615
#        104000
#        118204
#        132431
#        146858
#
# Disc length: 2129 seconds
#
# Revision: 5
# Processed by: cddbd v1.5.2PL0 Copyright (c) Steve Scherf et al.
# Submitted via: ExactAudioCopy v1.3
#
DISCID=a4084f0a
DTITLE=Hank Williams, Jr. - Habits Old and New
DYEAR=1980
DGENRE=Country
TTITLE0=Old Habits
TTITLE1=Dinasaur
TTITLE2=Kaw-Liga
TTITLE3=Here I Am Fallin' Again
TTITLE4=The Blues Man
TTITLE5=All In Alabama
TTITLE6=The American Way
TTITLE7=Move It On Over
TTITLE8=Won't It Be Nice
TTITLE9=If You Don't Like Hank Williams
EXTD=the real thing\n
EXTT0=
EXTT1=
EXTT2=
EXTT3=
EXTT4=
EXTT5=
EXTT6=
EXTT7=
EXTT8=
EXTT9=
PLAYORDER=
